<svg xmlns="http://www.w3.org/2000/svg" width="57" height="57" fill="none"><circle cx="29" cy="28" r="28" fill="#7F3DFF"/><mask id="a" fill="#fff"><path d="M29.53 29.53h10.006a1.25 1.25 0 1 0 0-2.492H29.53V17.032a1.25 1.25 0 0 0-2.492 0v10.006H17.032a1.25 1.25 0 0 0-1.246 1.246 1.25 1.25 0 0 0 1.246 1.247h10.006v10.005a1.25 1.25 0 0 0 1.246 1.246 1.25 1.25 0 0 0 1.246-1.246z"/></mask><path fill="#000" d="M29.53 29.53h10.006a1.25 1.25 0 1 0 0-2.492H29.53V17.032a1.25 1.25 0 0 0-2.492 0v10.006H17.032a1.25 1.25 0 0 0-1.246 1.246 1.25 1.25 0 0 0 1.246 1.247h10.006v10.005a1.25 1.25 0 0 0 1.246 1.246 1.25 1.25 0 0 0 1.246-1.246z"/><path fill="#FCFCFC" d="M29.53 29.53v-2.5h-2.5v2.5zm10.006 0 .193-2.492-.097-.007h-.096zm0-2.492v2.5h.096l.097-.007zm-10.006 0h-2.5v2.5h2.5zm0-10.006h2.5v-.096l-.007-.096zm-2.492 0-2.493-.192-.007.096v.096zm0 10.006v2.5h2.5v-2.5zm-10.006 0v-2.5h-.007zm-1.246 1.246-2.5-.007v.015zm1.246 1.247-.007 2.5h.007zm10.006 0h2.5v-2.5h-2.5zm0 10.005h-2.5v.008zm1.246 1.246-.007 2.5h.014zm1.246-1.246 2.5.008v-.008zm0-7.505h10.006v-5H29.53zm9.813-.008a3.75 3.75 0 0 0 1.521-.197l-1.642-4.722a1.25 1.25 0 0 1 .507-.066zm1.521-.197a3.75 3.75 0 0 0 1.316-.79l-3.397-3.669q.193-.177.439-.263zm1.316-.79a3.75 3.75 0 0 0 .889-1.25l-4.582-2.002c.069-.158.17-.3.296-.417zm.889-1.25c.206-.474.313-.985.313-1.502h-5c0-.172.036-.342.105-.5zm.313-1.502c0-.517-.107-1.028-.313-1.501l-4.582 2.002a1.25 1.25 0 0 1-.105-.5zm-.313-1.501c-.208-.474-.51-.9-.89-1.25l-3.396 3.669a1.25 1.25 0 0 1-.296-.417zm-.89-1.25a3.75 3.75 0 0 0-1.315-.79l-1.642 4.722a1.25 1.25 0 0 1-.439-.263zm-1.315-.79a3.75 3.75 0 0 0-1.521-.197l.386 4.985a1.25 1.25 0 0 1-.507-.066zm-1.328-.205H29.53v5h10.006zm-7.506 2.5V17.032h-5v10.006zm-.007-10.198a3.75 3.75 0 0 0-1.192-2.463l-3.396 3.67a1.25 1.25 0 0 1-.397-.822zm-1.192-2.463a3.75 3.75 0 0 0-2.547-.998v5a1.25 1.25 0 0 1-.85-.333zm-2.547-.998a3.75 3.75 0 0 0-2.547.998l3.396 3.67a1.25 1.25 0 0 1-.849.332zm-2.547.998a3.75 3.75 0 0 0-1.192 2.463l4.985.385a1.25 1.25 0 0 1-.397.821zm-1.2 2.655v10.006h5V17.032zm2.5 7.506H17.033v5h10.006zm-10.012 0a3.75 3.75 0 0 0-2.64 1.098l3.535 3.536a1.25 1.25 0 0 1-.88.366zm-2.64 1.098a3.75 3.75 0 0 0-1.1 2.64l5 .016a1.25 1.25 0 0 1-.365.88zm-1.1 2.656a3.75 3.75 0 0 0 1.1 2.64l3.535-3.535c.233.233.365.55.366.88zm1.1 2.64c.7.7 1.649 1.096 2.64 1.099l.015-5c.33 0 .646.132.88.366zm2.647 1.099h10.006v-5H17.032zm7.506-2.5v10.005h5V29.531zm0 10.013a3.75 3.75 0 0 0 1.098 2.64l3.536-3.535c.233.233.365.55.366.88zm1.098 2.64c.7.7 1.65 1.096 2.64 1.098l.015-5c.33.001.647.133.88.367zm2.655 1.098a3.75 3.75 0 0 0 2.64-1.098l-3.535-3.535a1.25 1.25 0 0 1 .88-.367zm2.64-1.098a3.75 3.75 0 0 0 1.1-2.64l-5-.015a1.25 1.25 0 0 1 .365-.88zm1.1-2.648V29.531h-5v10.005z" mask="url(#a)"/></svg>